<svg width="56" height="56" viewBox="0 0 56 56" fill="none" xmlns="http://www.w3.org/2000/svg">
<path fill-rule="evenodd" clip-rule="evenodd" d="M14.8517 13.4373C13.6437 12.2294 13.6785 10.2397 15.084 9.26874C17.6794 7.47573 20.6656 6.20822 23.8889 5.61996C25.5689 5.31337 26.9997 6.69595 26.9997 8.40368V18.3427C26.9997 21.0154 23.7683 22.3539 21.8784 20.464L14.8517 13.4373ZM11.9784 11.8478C11.9347 11.8911 11.8912 11.9346 11.8479 11.9782L11.9784 11.8478ZM13.4375 14.8515C12.2295 13.6436 10.2399 13.6784 9.2689 15.0839C7.47589 17.6792 6.20838 20.6654 5.62013 23.8888C5.31353 25.5688 6.69611 26.9995 8.40384 26.9995H18.3428C21.0156 26.9995 22.3541 23.7681 20.4642 21.8782L13.4375 14.8515ZM5.24969 27.9995L5.24996 27.8887L5.24996 28.1104L5.24969 27.9995ZM13.4375 41.1475C12.2295 42.3555 10.2399 42.3207 9.2689 40.9152C7.47589 38.3199 6.20838 35.3336 5.62013 32.1103C5.31353 30.4303 6.69611 28.9995 8.40384 28.9995H18.3428C21.0156 28.9995 22.3541 32.231 20.4642 34.1208L13.4375 41.1475ZM11.8482 44.0211C11.8913 44.0646 11.9346 44.1079 11.9781 44.151L11.8482 44.0211ZM14.8517 42.5618C13.6437 43.7697 13.6785 45.7593 15.084 46.7303C17.6794 48.5233 20.6656 49.7909 23.8889 50.3791C25.5689 50.6857 26.9997 49.3031 26.9997 47.5954V37.6564C26.9997 34.9837 23.7683 33.6452 21.8784 35.5351L14.8517 42.5618ZM35.5352 21.8782C33.6453 23.7681 34.9838 26.9995 37.6566 26.9995H47.5956C49.3033 26.9995 50.6859 25.5688 50.3793 23.8888C49.791 20.6654 48.5235 17.6792 46.7305 15.0839C45.7595 13.6784 43.7699 13.6436 42.5619 14.8515L35.5352 21.8782ZM41.1477 13.4373C42.3556 12.2294 42.3209 10.2397 40.9154 9.26874C38.32 7.47573 35.3338 6.20822 32.1105 5.61996C30.4305 5.31337 28.9997 6.69595 28.9997 8.40368V18.3427C28.9997 21.0154 32.2311 22.3539 34.121 20.464L41.1477 13.4373ZM46.7305 40.9152C45.7595 42.3207 43.7699 42.3555 42.5619 41.1475L35.5352 34.1209C33.6453 32.231 34.9838 28.9995 37.6565 28.9995H47.5956C49.3033 28.9995 50.6859 30.4303 50.3793 32.1103C49.791 35.3336 48.5235 38.3199 46.7305 40.9152ZM34.121 35.5351C32.2311 33.6452 28.9997 34.9837 28.9997 37.6564V47.5954C28.9997 49.3031 30.4305 50.6857 32.1105 50.3791C35.3338 49.7909 38.32 48.5233 40.9154 46.7303C42.3209 45.7593 42.3556 43.7697 41.1477 42.5618L34.121 35.5351Z" fill="#6A54FF"/>
<circle cx="27.9998" cy="5.25" r="3.75" fill="#57E1FF" stroke="black"/>
<circle cx="27.9998" cy="50.75" r="3.75" fill="#57E1FF" stroke="black"/>
<circle cx="11.9131" cy="11.9131" r="3.75" transform="rotate(-45 11.9131 11.9131)" fill="#57E1FF" stroke="black"/>
<circle cx="44.0865" cy="44.0869" r="3.75" transform="rotate(-45 44.0865 44.0869)" fill="#57E1FF" stroke="black"/>
<circle cx="5.25" cy="28" r="3.75" transform="rotate(-90 5.25 28)" fill="#57E1FF" stroke="black"/>
<circle cx="50.7498" cy="28" r="3.75" transform="rotate(-90 50.7498 28)" fill="#57E1FF" stroke="black"/>
<circle cx="11.9132" cy="44.0864" r="3.75" transform="rotate(-135 11.9132 44.0864)" fill="#57E1FF" stroke="black"/>
<circle cx="44.0865" cy="11.9136" r="3.75" transform="rotate(-135 44.0865 11.9136)" fill="#57E1FF" stroke="black"/>
</svg>
