<svg width="185" height="117" viewBox="0 0 185 117" fill="none" xmlns="http://www.w3.org/2000/svg">
<path d="M97.7088 55.2212H89.5943L85.3596 74.6967H94.1004C100.389 74.6967 102.256 71.2344 102.278 68.5024C102.297 66.1221 100.946 65.1483 99.6705 64.729L99.7122 64.5126C101.501 64.1204 103.671 62.6598 103.695 59.6573C103.719 56.763 101.48 55.2212 97.7088 55.2212ZM91.1212 70.7205L91.9786 66.8524H95.4296C96.7487 66.8524 97.5304 67.3934 97.5214 68.516C97.512 69.6791 96.6241 70.7205 94.7587 70.7205H91.1212ZM92.8368 62.8762L93.6394 59.1974H96.8239C98.143 59.1974 98.8718 59.6978 98.8631 60.7663C98.8542 61.8753 98.02 62.8762 96.1146 62.8762H92.8368Z" fill="white"/>
<path d="M106.227 55.2212L101.993 74.6967H115.946L116.873 70.477H107.983L111.29 55.2212H106.227Z" fill="white"/>
<path d="M125.791 55.2212L116.244 74.291L116.16 74.6967H120.97L122.842 70.6393H128.531L128.645 74.6967H133.255L133.339 74.291L132.08 55.2212H125.791ZM124.74 66.5549L128.022 59.4544H128.235L128.418 66.5549H124.74Z" fill="white"/>
<path d="M142.917 55.2212H137.441L133.206 74.6967H139.948C148.436 74.6967 151.219 68.3672 151.262 62.9573C151.303 57.9396 148.007 55.2212 142.917 55.2212ZM139.089 70.5852L141.512 59.3327H142.724C145.069 59.3327 146.404 60.6311 146.384 63.1061C146.355 66.7172 144.539 70.5852 140.648 70.5852H139.089Z" fill="white"/>
<path d="M154.074 55.2212L149.839 74.6967H164.363L165.221 70.7205H155.654L156.498 66.8795H164.546L165.404 62.9032H157.369L158.172 59.1974H167.552L168.411 55.2212H154.074Z" fill="white"/>
<path d="M105.517 32.6792L104.618 36.8448H110.134L106.799 52.1548H111.809L115.144 36.8448H120.66L121.56 32.6792H105.517Z" fill="white"/>
<path d="M130.052 32.6792H122.177L117.942 52.1548H122.846L124.506 44.4998H124.773L128.722 52.1548H133.692L133.775 51.749L129.796 44.5268C134.649 44.1211 136.444 41.3215 136.471 37.9268C136.498 34.5726 134.022 32.6792 130.052 32.6792ZM125.281 40.9293L126.222 36.6554H129.353C130.872 36.6554 131.733 37.2641 131.724 38.4542C131.714 39.6985 130.824 40.9293 128.612 40.9293H125.281Z" fill="white"/>
<path d="M142.381 32.6792L132.833 51.749L132.75 52.1548H137.56L139.431 48.0974H145.121L145.235 52.1548H149.845L149.928 51.749L148.67 32.6792H142.381ZM141.33 44.0129L144.612 36.9124H144.825L145.007 44.0129H141.33Z" fill="white"/>
<path d="M159.506 32.6792H154.03L149.796 52.1548H156.538C165.025 52.1548 167.808 45.8252 167.852 40.4153C167.892 35.3977 164.596 32.6792 159.506 32.6792ZM155.678 48.0433L158.101 36.7907H159.313C161.658 36.7907 162.994 38.0891 162.974 40.5641C162.945 44.1752 161.128 48.0433 157.237 48.0433H155.678Z" fill="white"/>
<path d="M170.663 32.6792L166.428 52.1548H180.952L181.81 48.1785H172.243L173.087 44.3375H181.135L181.993 40.3612H173.959L174.761 36.6554H184.142L185 32.6792H170.663Z" fill="white"/>
<path d="M51.7143 74.7495L20 20L35.753 32.6416L55.8891 67.5185L51.7143 74.7495Z" fill="#5E47FF"/>
<path d="M81.4847 41.6021L49.9274 96.4422L52.9988 76.479L73.135 41.6021L81.4847 41.6021Z" fill="#5E47FF"/>
<path d="M38.077 32.7403L101.349 32.6497L82.5242 39.9714H42.2519L38.077 32.7403Z" fill="#5E47FF"/>
<path d="M51.7143 74.7495L20 20L35.753 32.6416L55.8891 67.5185L51.7143 74.7495Z" fill="#5E47FF"/>
<path d="M81.4847 41.6021L49.9274 96.4422L52.9988 76.479L73.135 41.6021L81.4847 41.6021Z" fill="#5E47FF"/>
<g filter="url(#filter0_f_137_9697)">
<path d="M38.077 32.7403L101.349 32.6497L82.5242 39.9714H42.2519L38.077 32.7403Z" fill="#5E47FF"/>
</g>
<path d="M57.027 63.386L68.9551 42.7258H45.0988L57.027 63.386Z" fill="#57E1FF"/>
<g filter="url(#filter1_f_137_9697)">
<path d="M51.7143 74.7495L20 20L35.753 32.6416L55.8891 67.5185L51.7143 74.7495Z" fill="#5E47FF"/>
</g>
<g filter="url(#filter2_f_137_9697)">
<path d="M81.4847 41.6021L49.9274 96.4422L52.9988 76.479L73.135 41.6021L81.4847 41.6021Z" fill="#5E47FF"/>
</g>
<path d="M38.077 32.7403L101.349 32.6497L82.5242 39.9714H42.2519L38.077 32.7403Z" fill="#5E47FF"/>
<defs>
<filter id="filter0_f_137_9697" x="18.077" y="12.6497" width="103.272" height="47.3218" filterUnits="userSpaceOnUse" color-interpolation-filters="sRGB">
<feFlood flood-opacity="0" result="BackgroundImageFix"/>
<feBlend mode="normal" in="SourceGraphic" in2="BackgroundImageFix" result="shape"/>
<feGaussianBlur stdDeviation="10" result="effect1_foregroundBlur_137_9697"/>
</filter>
<filter id="filter1_f_137_9697" x="0" y="0" width="75.8891" height="94.7495" filterUnits="userSpaceOnUse" color-interpolation-filters="sRGB">
<feFlood flood-opacity="0" result="BackgroundImageFix"/>
<feBlend mode="normal" in="SourceGraphic" in2="BackgroundImageFix" result="shape"/>
<feGaussianBlur stdDeviation="10" result="effect1_foregroundBlur_137_9697"/>
</filter>
<filter id="filter2_f_137_9697" x="29.9274" y="21.602" width="71.5573" height="94.8403" filterUnits="userSpaceOnUse" color-interpolation-filters="sRGB">
<feFlood flood-opacity="0" result="BackgroundImageFix"/>
<feBlend mode="normal" in="SourceGraphic" in2="BackgroundImageFix" result="shape"/>
<feGaussianBlur stdDeviation="10" result="effect1_foregroundBlur_137_9697"/>
</filter>
</defs>
</svg>
